<?xml version="1.0" standalone="no"?>
<!DOCTYPE svg PUBLIC "-//W3C//DTD SVG 20010904//EN"
 "http://www.w3.org/TR/2001/REC-SVG-20010904/DTD/svg10.dtd">
<svg version="1.0" xmlns="http://www.w3.org/2000/svg"
 width="500.000000pt" height="500.000000pt" viewBox="0 0 500.000000 500.000000"
 preserveAspectRatio="xMidYMid meet">
<metadata>
Created by potrace 1.11, written by Peter Selinger 2001-2013
</metadata>
<g transform="translate(0.000000,500.000000) scale(0.100000,-0.100000)"
fill="#000000" stroke="none">
<path d="M2207 3312 c-15 -17 -17 -55 -17 -346 0 -206 4 -334 10 -347 10 -18
24 -19 280 -19 256 0 270 1 280 19 6 13 10 141 10 349 0 306 -1 330 -18 345
-16 15 -50 17 -274 17 -234 0 -256 -1 -271 -18z m531 -349 l-3 -338 -255 0
-255 0 -3 338 -2 337 260 0 260 0 -2 -337z"/>
<path d="M2640 3235 c-5 -14 -11 -36 -13 -48 -2 -12 -2 -16 0 -9 6 18 44 15
60 -5 10 -13 13 -14 9 -3 -2 8 -10 32 -17 53 -14 43 -26 47 -39 12z m30 -21
c0 -8 -7 -14 -15 -14 -17 0 -18 2 -9 24 7 18 24 12 24 -10z"/>
<path d="M2402 3028 c-29 -29 -4 -101 48 -138 l30 -21 30 21 c35 25 60 68 60
103 0 49 -56 63 -75 19 -12 -28 -18 -28 -30 1 -11 25 -44 34 -63 15z"/>
<path d="M2266 2750 c9 -37 34 -94 38 -89 3 2 14 29 25 59 15 41 17 49 5 33
-9 -13 -24 -23 -34 -23 -9 0 -22 10 -29 23 -11 22 -11 22 -5 -3z m47 -51 c-4
-16 -8 -17 -14 -7 -13 19 -11 28 5 28 9 0 12 -7 9 -21z"/>
<path d="M550 2680 l0 -40 720 0 720 0 0 40 0 40 -720 0 -720 0 0 -40z"/>
<path d="M2970 2680 l0 -40 720 0 720 0 0 40 0 40 -720 0 -720 0 0 -40z"/>
<path d="M960 2050 l0 -250 45 0 45 0 0 50 0 50 58 0 c130 0 216 56 241 155
22 87 -23 186 -101 224 -38 18 -62 21 -166 21 l-122 0 0 -250z m240 142 c68
-34 80 -104 26 -158 -32 -32 -38 -34 -105 -34 l-71 0 0 98 c0 54 3 102 7 105
13 14 109 7 143 -11z"/>
<path d="M1470 2282 c-23 -12 -43 -35 -58 -65 -33 -65 -24 -118 28 -168 42
-40 72 -49 166 -49 57 0 65 -3 80 -25 15 -23 15 -27 0 -50 -16 -24 -19 -25
-141 -25 l-125 0 0 -50 0 -50 123 0 c108 0 128 3 167 23 57 29 83 75 77 140
-8 95 -67 137 -188 137 -84 0 -114 17 -107 61 5 38 42 49 166 49 l112 0 0 45
0 45 -133 0 c-108 0 -139 -3 -167 -18z"/>
<path d="M1860 2050 l0 -250 175 0 175 0 0 50 0 50 -125 0 -125 0 0 200 0 200
-50 0 -50 0 0 -250z"/>
<path d="M2345 2172 c-71 -33 -115 -105 -115 -187 0 -16 11 -53 24 -82 51
-108 186 -140 285 -66 97 74 92 252 -9 319 -52 35 -131 41 -185 16z m148 -113
c31 -34 35 -74 12 -119 -58 -112 -219 -22 -171 95 17 40 66 68 106 59 14 -2
37 -18 53 -35z"/>
<path d="M3148 2180 c-135 -40 -174 -237 -66 -337 54 -50 155 -59 223 -18 24
13 45 31 48 39 3 7 -9 27 -26 44 l-32 31 -24 -24 c-16 -17 -34 -25 -58 -25
l-34 0 77 93 c43 50 85 100 93 110 15 17 13 21 -16 47 -49 44 -121 59 -185 40z
m77 -89 c7 -12 -100 -153 -109 -144 -14 15 -5 82 15 107 30 38 81 58 94 37z"/>
<path d="M2630 2168 c0 -2 31 -84 69 -183 l68 -180 48 0 47 0 69 180 c38 99
69 181 69 183 0 2 -24 2 -52 0 l-53 -3 -37 -105 c-20 -58 -38 -109 -40 -114
-2 -5 -22 42 -44 105 l-40 114 -52 3 c-29 2 -52 2 -52 0z"/>
<path d="M3420 1985 l0 -185 45 0 45 0 0 118 c0 111 1 120 23 140 18 17 36 22
80 22 l57 0 0 45 0 45 -67 0 c-49 0 -77 -5 -100 -19 -31 -19 -31 -19 -49 0 -9
10 -21 19 -26 19 -4 0 -8 -83 -8 -185z"/>
<path d="M3740 2143 c-59 -53 -48 -153 20 -188 18 -9 56 -15 100 -15 56 0 72
-3 77 -16 10 -27 -17 -34 -129 -34 l-108 0 0 -45 0 -45 115 0 c133 0 175 13
199 59 25 48 20 96 -13 133 -27 31 -33 33 -117 38 -81 4 -89 7 -89 25 0 19 8
20 108 23 l107 3 0 44 0 45 -120 0 c-116 0 -121 -1 -150 -27z"/>
</g>
</svg>
